<svg width="39" height="26" viewBox="0 0 39 26" fill="none" xmlns="http://www.w3.org/2000/svg">
<path d="M36.4297 19.6382C36.1589 19.6382 35.8882 19.5738 35.6433 19.4578C33.7355 18.5296 31.441 18.0269 29.0304 18.0269H2.75934C2.16637 18.0269 1.62496 17.7433 1.28981 17.2535C0.954652 16.7765 0.877309 16.1578 1.08356 15.6035L4.83473 5.54878C4.84762 5.523 4.84762 5.51011 4.86051 5.48433C6.07223 2.54526 8.92106 0.637451 12.105 0.637451H28.0765C31.6343 0.637451 34.7539 3.03511 35.6562 6.47691C35.6562 6.4898 35.6691 6.51558 35.6691 6.52847L38.1828 17.421C38.3375 18.0914 38.0925 18.8003 37.5511 19.2257C37.2289 19.5093 36.8293 19.6382 36.4297 19.6382ZM5.35036 14.4433H29.0433C30.7449 14.4433 32.3949 14.6496 33.9547 15.0492L32.1886 7.39214C31.6859 5.53589 29.9972 4.24683 28.0765 4.24683H12.0922C10.3777 4.24683 8.84372 5.26519 8.1734 6.85073L5.35036 14.4433Z" fill="#F0BF5F"/>
<path d="M22.959 25.5679C21.9664 25.5679 21.1672 24.7686 21.1672 23.7761V3.12529C21.1672 2.13271 21.9664 1.3335 22.959 1.3335C23.9515 1.3335 24.7508 2.13271 24.7508 3.12529V23.7632C24.7508 24.7686 23.9515 25.5679 22.959 25.5679Z" fill="#F0BF5F"/>
</svg>
